<mxfile host="app.diagrams.net" modified="2024-02-05T16:48:04.847Z" agent="Mozilla/5.0 (Windows NT 10.0; Win64; x64) AppleWebKit/537.36 (KHTML, like Gecko) Chrome/121.0.0.0 Safari/537.36" etag="lsuDoiFy9cqFuLyLSXWQ" version="23.1.1" type="device">
  <diagram name="Страница — 1" id="chXJDbKIrXonWuZZhFxH">
    <mxGraphModel dx="990" dy="608" grid="1" gridSize="10" guides="1" tooltips="1" connect="1" arrows="1" fold="1" page="1" pageScale="1" pageWidth="827" pageHeight="1169" math="0" shadow="0">
      <root>
        <mxCell id="0" />
        <mxCell id="1" parent="0" />
        <mxCell id="3QSMEr3QA6pAPbklule9-3" style="edgeStyle=orthogonalEdgeStyle;rounded=0;orthogonalLoop=1;jettySize=auto;html=1;exitX=1;exitY=0.5;exitDx=0;exitDy=0;" edge="1" parent="1" source="3QSMEr3QA6pAPbklule9-2" target="3QSMEr3QA6pAPbklule9-4">
          <mxGeometry relative="1" as="geometry">
            <mxPoint x="200" y="200" as="targetPoint" />
          </mxGeometry>
        </mxCell>
        <mxCell id="3QSMEr3QA6pAPbklule9-2" value="Потребность оцифровать вещь" style="ellipse;whiteSpace=wrap;html=1;aspect=fixed;" vertex="1" parent="1">
          <mxGeometry x="40" y="160" width="80" height="80" as="geometry" />
        </mxCell>
        <mxCell id="3QSMEr3QA6pAPbklule9-5" style="edgeStyle=orthogonalEdgeStyle;rounded=0;orthogonalLoop=1;jettySize=auto;html=1;exitX=0.5;exitY=1;exitDx=0;exitDy=0;" edge="1" parent="1" source="3QSMEr3QA6pAPbklule9-4">
          <mxGeometry relative="1" as="geometry">
            <mxPoint x="240" y="290" as="targetPoint" />
          </mxGeometry>
        </mxCell>
        <mxCell id="3QSMEr3QA6pAPbklule9-12" style="edgeStyle=orthogonalEdgeStyle;rounded=0;orthogonalLoop=1;jettySize=auto;html=1;exitX=1;exitY=0.5;exitDx=0;exitDy=0;" edge="1" parent="1" source="3QSMEr3QA6pAPbklule9-4">
          <mxGeometry relative="1" as="geometry">
            <mxPoint x="370" y="200" as="targetPoint" />
          </mxGeometry>
        </mxCell>
        <mxCell id="3QSMEr3QA6pAPbklule9-4" value="Создание NFT" style="rounded=1;whiteSpace=wrap;html=1;" vertex="1" parent="1">
          <mxGeometry x="180" y="170" width="120" height="60" as="geometry" />
        </mxCell>
        <mxCell id="3QSMEr3QA6pAPbklule9-7" style="edgeStyle=orthogonalEdgeStyle;rounded=0;orthogonalLoop=1;jettySize=auto;html=1;exitX=0.5;exitY=1;exitDx=0;exitDy=0;" edge="1" parent="1" source="3QSMEr3QA6pAPbklule9-6" target="3QSMEr3QA6pAPbklule9-8">
          <mxGeometry relative="1" as="geometry">
            <mxPoint x="240" y="430" as="targetPoint" />
          </mxGeometry>
        </mxCell>
        <mxCell id="3QSMEr3QA6pAPbklule9-6" value="Коллекция вещей - смарт контракт" style="rounded=1;whiteSpace=wrap;html=1;" vertex="1" parent="1">
          <mxGeometry x="180" y="290" width="120" height="60" as="geometry" />
        </mxCell>
        <mxCell id="3QSMEr3QA6pAPbklule9-8" value="Каждый токен содержит в себе цифровой аватар + id вещи" style="rounded=1;whiteSpace=wrap;html=1;" vertex="1" parent="1">
          <mxGeometry x="180" y="400" width="120" height="60" as="geometry" />
        </mxCell>
        <mxCell id="3QSMEr3QA6pAPbklule9-15" style="edgeStyle=orthogonalEdgeStyle;rounded=0;orthogonalLoop=1;jettySize=auto;html=1;exitX=0.5;exitY=1;exitDx=0;exitDy=0;" edge="1" parent="1" source="3QSMEr3QA6pAPbklule9-13" target="3QSMEr3QA6pAPbklule9-14">
          <mxGeometry relative="1" as="geometry" />
        </mxCell>
        <mxCell id="3QSMEr3QA6pAPbklule9-23" style="edgeStyle=orthogonalEdgeStyle;rounded=0;orthogonalLoop=1;jettySize=auto;html=1;exitX=1;exitY=0.5;exitDx=0;exitDy=0;" edge="1" parent="1" source="3QSMEr3QA6pAPbklule9-13" target="3QSMEr3QA6pAPbklule9-18">
          <mxGeometry relative="1" as="geometry" />
        </mxCell>
        <mxCell id="3QSMEr3QA6pAPbklule9-13" value="Поиск вещи по qr-коду" style="rounded=1;whiteSpace=wrap;html=1;" vertex="1" parent="1">
          <mxGeometry x="370" y="170" width="120" height="60" as="geometry" />
        </mxCell>
        <mxCell id="3QSMEr3QA6pAPbklule9-16" style="edgeStyle=orthogonalEdgeStyle;rounded=0;orthogonalLoop=1;jettySize=auto;html=1;exitX=0.5;exitY=1;exitDx=0;exitDy=0;" edge="1" parent="1" source="3QSMEr3QA6pAPbklule9-14">
          <mxGeometry relative="1" as="geometry">
            <mxPoint x="430" y="400" as="targetPoint" />
          </mxGeometry>
        </mxCell>
        <mxCell id="3QSMEr3QA6pAPbklule9-14" value="Web2 платформа с NFT" style="rounded=1;whiteSpace=wrap;html=1;" vertex="1" parent="1">
          <mxGeometry x="370" y="290" width="120" height="60" as="geometry" />
        </mxCell>
        <mxCell id="3QSMEr3QA6pAPbklule9-17" value="В QR зашиваем id вещи или ссылку на платформу?" style="rounded=1;whiteSpace=wrap;html=1;" vertex="1" parent="1">
          <mxGeometry x="370" y="400" width="120" height="60" as="geometry" />
        </mxCell>
        <mxCell id="3QSMEr3QA6pAPbklule9-20" style="edgeStyle=orthogonalEdgeStyle;rounded=0;orthogonalLoop=1;jettySize=auto;html=1;exitX=0.5;exitY=1;exitDx=0;exitDy=0;" edge="1" parent="1" source="3QSMEr3QA6pAPbklule9-18" target="3QSMEr3QA6pAPbklule9-19">
          <mxGeometry relative="1" as="geometry" />
        </mxCell>
        <mxCell id="3QSMEr3QA6pAPbklule9-18" value="Анонс новых коллекций" style="rounded=1;whiteSpace=wrap;html=1;" vertex="1" parent="1">
          <mxGeometry x="560" y="170" width="120" height="60" as="geometry" />
        </mxCell>
        <mxCell id="3QSMEr3QA6pAPbklule9-22" style="edgeStyle=orthogonalEdgeStyle;rounded=0;orthogonalLoop=1;jettySize=auto;html=1;exitX=0.5;exitY=1;exitDx=0;exitDy=0;" edge="1" parent="1" source="3QSMEr3QA6pAPbklule9-19" target="3QSMEr3QA6pAPbklule9-21">
          <mxGeometry relative="1" as="geometry" />
        </mxCell>
        <mxCell id="3QSMEr3QA6pAPbklule9-19" value="Аукцион NFT" style="rounded=1;whiteSpace=wrap;html=1;" vertex="1" parent="1">
          <mxGeometry x="560" y="290" width="120" height="60" as="geometry" />
        </mxCell>
        <mxCell id="3QSMEr3QA6pAPbklule9-21" value="Доставка:???" style="rounded=1;whiteSpace=wrap;html=1;" vertex="1" parent="1">
          <mxGeometry x="560" y="400" width="120" height="60" as="geometry" />
        </mxCell>
        <mxCell id="3QSMEr3QA6pAPbklule9-24" value="Solidity" style="swimlane;whiteSpace=wrap;html=1;" vertex="1" parent="1">
          <mxGeometry x="140" y="60" width="200" height="500" as="geometry" />
        </mxCell>
        <mxCell id="3QSMEr3QA6pAPbklule9-25" value="JavaScript" style="swimlane;whiteSpace=wrap;html=1;" vertex="1" parent="1">
          <mxGeometry x="340" y="60" width="180" height="500" as="geometry" />
        </mxCell>
        <mxCell id="3QSMEr3QA6pAPbklule9-26" value="&amp;nbsp;JS + Дизайнеры ???" style="swimlane;whiteSpace=wrap;html=1;" vertex="1" parent="1">
          <mxGeometry x="520" y="60" width="180" height="500" as="geometry" />
        </mxCell>
      </root>
    </mxGraphModel>
  </diagram>
</mxfile>
